<?xml version="1.0" standalone="no"?>
<!DOCTYPE svg PUBLIC "-//W3C//DTD SVG 20010904//EN"
 "http://www.w3.org/TR/2001/REC-SVG-20010904/DTD/svg10.dtd">
<svg version="1.0" xmlns="http://www.w3.org/2000/svg"
 width="512.000000pt" height="512.000000pt" viewBox="0 0 512.000000 512.000000"
 preserveAspectRatio="xMidYMid meet">
<metadata>
Created by potrace 1.14, written by Peter Selinger 2001-2017
</metadata>
<g transform="translate(0.000000,512.000000) scale(0.100000,-0.100000)"
fill="#000000" stroke="none">
<path d="M2365 5103 c-88 -18 -196 -70 -257 -123 -63 -55 -139 -170 -178 -271
-31 -81 -73 -250 -85 -344 -3 -27 -8 -63 -10 -80 -8 -58 -15 -181 -20 -360 -6
-190 -7 -208 -25 -295 -34 -163 -68 -247 -235 -585 -140 -282 -152 -309 -242
-545 -108 -283 -209 -613 -238 -782 -3 -21 -12 -38 -18 -38 -18 0 -81 -68
-103 -110 -9 -19 -29 -75 -43 -125 l-26 -89 -115 -26 c-63 -14 -139 -35 -169
-45 -63 -23 -132 -80 -155 -130 -20 -41 -22 -136 -6 -215 18 -86 20 -237 4
-310 -19 -84 -19 -136 0 -181 28 -68 127 -136 241 -167 106 -29 90 -26 253
-47 18 -2 67 -6 110 -10 116 -9 124 -12 305 -91 224 -99 316 -126 437 -128
104 -1 146 13 206 69 16 15 48 36 70 46 46 21 221 64 299 74 28 4 61 8 75 11
14 2 192 4 395 5 l370 2 20 -41 c62 -125 160 -175 333 -167 103 4 161 18 245
60 76 38 109 66 232 191 61 61 129 122 150 136 22 14 101 48 175 77 272 105
330 155 330 288 0 104 -51 170 -228 295 -61 44 -117 89 -123 100 -8 14 -9 52
-4 117 13 165 3 230 -40 273 -24 24 -25 31 -30 194 -5 196 -9 228 -49 430 -34
173 -155 441 -288 639 -54 80 -292 392 -308 405 -19 14 -141 202 -163 250 -37
83 -40 101 -43 300 -4 257 -13 371 -39 525 -21 119 -23 128 -51 218 -102 324
-286 520 -556 593 -85 23 -308 27 -403 7z"/>
</g>
</svg>
